#N canvas 60 28 670 503 10;
#X obj 134 116 inlet;
#X obj 395 241 inlet;
#X obj 22 127 inlet~;
#X obj 109 168 unpack;
#X obj 186 379 vline~;
#X obj 75 405 *~;
#X msg 399 328 0 \$2;
#X obj 202 67 hsl 128 15 0 1000 0 0 \$0-release empty Release -2 -8
0 10 -262144 -1 -1 0 1;
#X obj 24 28 hsl 128 15 0 300 0 0 \$0-attack empty Attack -2 -8 0 10
-262144 -1 -1 0 1;
#X obj 24 67 hsl 128 15 0 500 0 0 \$0-decay empty Decay -2 -8 0 10
-262144 -1 -1 0 1;
#X obj 201 31 hsl 128 15 0 1 0 0 \$0-sustain empty Sustain_volume -2
-8 0 10 -262144 -1 -1 0 1;
#X obj 336 109 r \$0-attack;
#X obj 533 106 r \$0-sustain;
#X obj 435 107 r \$0-decay;
#X obj 398 296 pack f f;
#X obj 522 238 r \$0-release;
#X obj 77 458 outlet~;
#X obj 223 145 outlet;
#X obj 194 210 pack f f f f f;
#X msg 202 295 \$2 \$3 \, \$5 \$4 \$3;
#X connect 0 0 3 0;
#X connect 0 0 17 0;
#X connect 0 0 18 0;
#X connect 1 0 14 0;
#X connect 2 0 5 0;
#X connect 3 1 18 1;
#X connect 4 0 5 1;
#X connect 5 0 16 0;
#X connect 6 0 4 0;
#X connect 11 0 18 2;
#X connect 12 0 18 4;
#X connect 13 0 18 3;
#X connect 14 0 6 0;
#X connect 15 0 14 1;
#X connect 18 0 19 0;
#X connect 19 0 4 0;
#X coords 0 -1 1 1 350 90 1 0 0;
