#N canvas 586 58 630 582 10;
#X obj 57 181 notein;
#X floatatom 90 203 5 0 0 0 - - -, f 5;
#X floatatom 108 253 5 0 0 0 - - -, f 5;
#X floatatom 57 253 5 0 0 0 - - -, f 5;
#X obj 112 413 mtof;
#X obj 57 282 stripnote;
#X floatatom 112 386 5 0 0 0 - - -, f 5;
#X text 36 386 Número MIDI;
#X obj 112 469 pack;
#X obj 284 309 select 0;
#X obj 133 441 r \$0-ampl;
#X obj 112 493 outlet;
#X text 128 201 canal (não ta sendo usado);
#X text 145 252 velocidade;
#X obj 284 391 outlet;
#X text 331 391 <-- Saída da direita:, f 38;
#X text 331 410 Manda um bang quando a velocidade é 0 \, o que sinaliza
que a nota acabou., f 38;
#X text 160 492 <-- Saída da esquerda:;
#X text 160 511 Retorna a dupla (frequência \, amplitude);
#X text 101 179 Recebe nota MIDI da entrada configurada.;
#X obj 329 331 expr $f1 / 127;
#X text 423 331 Amplitude;
#X obj 329 353 s \$0-ampl;
#X obj 34 448 s \$0-freq;
#X floatatom 84 102 5 0 0 1 Amplitude #0-ampl -, f 5;
#X floatatom 84 84 5 0 0 1 Frequência #0-freq -, f 5;
#X text 6 117 Saída: (f \, a), f 6;
#X text 207 117 Saída:bang, f 6;
#X obj 15 20 cnv 15 220 50 empty empty empty 20 12 0 14 -262130 -66577
0;
#X text 16 23 Lê a entrada MIDI e devolve duplas (frequência \, amplitude)
na esquerda e bangs (fim de notas) na direitas., f 36;
#X connect 0 0 3 0;
#X connect 0 1 2 0;
#X connect 0 2 1 0;
#X connect 2 0 5 1;
#X connect 2 0 9 0;
#X connect 3 0 5 0;
#X connect 4 0 8 0;
#X connect 4 0 23 0;
#X connect 5 0 6 0;
#X connect 6 0 4 0;
#X connect 8 0 11 0;
#X connect 9 0 14 0;
#X connect 9 1 20 0;
#X connect 10 0 8 1;
#X connect 20 0 22 0;
#X coords 0 -1 1 1 250 150 1 0 0;
