#N canvas 333 161 803 411 10;
#X obj 130 214 zexy/multiplex 0 0;
#X obj 373 214 zexy/multiplex 0 0;
#X obj 67 16 vradio 50 1 0 2 \$0-entrada empty empty 0 -8 0 10 -262144
-1 -1 0;
#X text 18 31 Arquivo;
#X text 18 84 Teclado MIDI, f 7;
#X obj 394 16 cnv 15 250 100 empty \$0-teclado-canvas empty 20 12 0
14 -262144 -66577 0;
#X obj 394 16 EntradaMIDI;
#X obj 235 193 r \$0-entrada;
#X obj 478 193 r \$0-entrada;
#X obj 130 236 outlet;
#X obj 373 236 outlet;
#N canvas 0 22 558 269 highlight 0;
#X obj 242 58 t b f;
#X obj 242 79 f \$0;
#X text 25 35 Ajusta as cores dos canvas por trás das interfaces gráficas
de cada tipo de entrada \, deixando destacado o que está selecionado
no momento., f 21;
#X obj 192 104 zexy/demultiplex 0 0;
#X msg 192 207 \; \$1-arquivo-canvas color 10 \; \$1-teclado-canvas
color -1.67772e+12;
#X msg 309 135 \; \$1-teclado-canvas color 10 \; \$1-arquivo-canvas
color -1.67772e+12;
#X obj 242 36 r \$0-entrada;
#X connect 0 0 1 0;
#X connect 0 1 3 1;
#X connect 1 0 3 0;
#X connect 3 0 4 0;
#X connect 3 1 5 0;
#X connect 6 0 0 0;
#X restore 11 222 pd highlight;
#X obj 130 16 cnv 15 250 100 empty \$0-arquivo-canvas empty 20 12 0
14 -233017 -66577 0;
#X obj 130 16 LeitorArquivo;
#X connect 0 0 9 0;
#X connect 1 0 10 0;
#X connect 6 0 0 1;
#X connect 6 1 1 1;
#X connect 7 0 0 2;
#X connect 8 0 1 2;
#X connect 13 0 0 0;
#X connect 13 1 1 0;
#X coords 0 -1 1 1 645 120 1 10 5;
