#N canvas 586 58 630 582 10;
#X obj 48 117 notein;
#X floatatom 81 139 5 0 0 0 - - -, f 5;
#X floatatom 99 189 5 0 0 0 - - -, f 5;
#X floatatom 48 189 5 0 0 0 - - -, f 5;
#X floatatom 103 375 5 0 0 0 - - -, f 5;
#X obj 103 349 mtof;
#X obj 103 401 osc~;
#X obj 48 218 stripnote;
#X floatatom 103 322 5 0 0 0 - - -, f 5;
#X obj 103 513 dac~;
#X obj 103 478 *~;
#X text 27 322 Número MIDI;
#X text 62 375 Hertz;
#X obj 239 399 pack;
#X obj 275 245 select 0;
#X msg 275 334 0;
#X obj 10 47 hsl 128 15 0 1 0 0 \$0-ampl empty Volume -2 -8 0 10 -262144
-1 -1 4800 1;
#X obj 260 371 r \$0-ampl;
#X obj 239 423 outlet;
#X text 119 137 canal (não ta sendo usado);
#X text 136 188 velocidade;
#X obj 313 277 outlet;
#X obj 118 450 r \$0-ampl;
#X text 372 259 <-- Saída da direita:, f 38;
#X text 372 278 Manda um bang quando a velocidade é 0 \, o que sinaliza
que a nota acabou., f 38;
#X text 287 422 <-- Saída da esquerda:;
#X text 287 441 Retorna a dupla (frequência \, amplitude);
#X text 306 329 Manda 0 pro oscilador pra parar de tocar a nota quando
ela acaba., f 35;
#X text 131 473 Tirar isso depois \, não é esse patch que tem que
tocar o som., f 19;
#X text 92 115 Recebe nota MIDI da entrada configurada.;
#X connect 0 0 3 0;
#X connect 0 1 2 0;
#X connect 0 2 1 0;
#X connect 2 0 7 1;
#X connect 2 0 14 0;
#X connect 3 0 7 0;
#X connect 4 0 6 0;
#X connect 5 0 4 0;
#X connect 5 0 13 0;
#X connect 6 0 10 0;
#X connect 7 0 8 0;
#X connect 8 0 5 0;
#X connect 10 0 9 0;
#X connect 10 0 9 1;
#X connect 13 0 18 0;
#X connect 14 0 15 0;
#X connect 14 0 21 0;
#X connect 15 0 6 0;
#X connect 17 0 13 1;
#X connect 22 0 10 1;
#X coords 0 -1 1 1 150 100 1 0 0;
