#N canvas 333 161 692 317 10;
#X obj 130 184 zexy/multiplex 0 0;
#X obj 373 184 zexy/multiplex 0 0;
#X obj 67 10 vradio 30 1 0 2 \$0-entrada empty empty 0 -8 0 10 -262144
-1 -1 0;
#X text 18 17 Arquivo;
#X text 18 41 Teclado MIDI, f 7;
#X obj 394 10 cnv 15 250 60 empty \$0-teclado-canvas empty 20 12 0
14 -262144 -66577 0;
#X obj 394 10 EntradaMIDI;
#X obj 235 163 r \$0-entrada;
#X obj 478 163 r \$0-entrada;
#X obj 130 206 outlet;
#X obj 373 206 outlet;
#N canvas 0 22 558 269 highlight 0;
#X obj 242 58 t b f;
#X obj 242 79 f \$0;
#X text 25 35 Ajusta as cores dos canvas por trás das interfaces gráficas
de cada tipo de entrada \, deixando destacado o que está selecionado
no momento., f 21;
#X obj 192 104 zexy/demultiplex 0 0;
#X msg 192 207 \; \$1-arquivo-canvas color 10 \; \$1-teclado-canvas
color -1.67772e+12;
#X msg 309 135 \; \$1-teclado-canvas color 10 \; \$1-arquivo-canvas
color -1.67772e+12;
#X obj 242 36 r \$0-entrada;
#X connect 0 0 1 0;
#X connect 0 1 3 1;
#X connect 1 0 3 0;
#X connect 3 0 4 0;
#X connect 3 1 5 0;
#X connect 6 0 0 0;
#X restore 11 192 pd highlight;
#X obj 130 10 cnv 15 250 60 empty \$0-arquivo-canvas empty 20 12 0
14 -233017 -66577 0;
#X obj 130 10 LeitorArquivo;
#X text 12 76 Saída:(f \, a), f 6;
#X text 612 76 Saída:bang, f 6;
#X obj 157 267 cnv 15 400 20 empty empty empty 20 12 0 14 -262130 -66577
0;
#X text 178 268 Abstração para selecionar o método de entrada desejado.
;
#X connect 0 0 9 0;
#X connect 1 0 10 0;
#X connect 6 0 0 1;
#X connect 6 1 1 1;
#X connect 7 0 0 2;
#X connect 8 0 1 2;
#X connect 13 0 0 0;
#X connect 13 1 1 0;
#X coords 0 -1 1 1 645 100 2 10 5;
