#N canvas 0 22 1252 434 10;
#X obj 285 15 inlet;
#X obj 542 15 inlet;
#X obj 12 41 zexy/demultiplex~ 0 0;
#X obj 12 68 s~ \$0-adsr-left-in;
#X obj 135 68 s~ \$0-randlin-left-in;
#X obj 285 41 zexy/demultiplex 0 0;
#X obj 542 41 zexy/demultiplex 0 0;
#X obj 542 67 s \$0-adsr-right-in;
#X obj 659 67 s \$0-randlin-right-in;
#X obj 1049 147 outlet;
#X obj 814 80 outlet~;
#X obj 814 58 zexy/multiplex~ 0 0;
#X obj 1049 125 zexy/multiplex 0 0;
#X obj 814 6 r~ \$0-adsr-left-out;
#X obj 925 32 r~ \$0-randlin-left-out;
#X obj 285 68 s \$0-adsr-mid-in;
#X obj 402 67 s \$0-randlin-mid-in;
#X obj 65 15 r \$0-env;
#X obj 402 16 r \$0-env;
#X obj 659 15 r \$0-env;
#X obj 826 33 r \$0-env;
#X obj 1048 58 r \$0-adsr-right-out;
#X obj 1101 78 r \$0-randlin-right-out;
#X obj 1154 98 r \$0-env;
#X obj 402 264 hradio 40 1 0 2 \$0-env empty empty 0 -8 0 10 -262144
-1 -1 0;
#X text 407 237 ADSR;
#X text 445 230 Trechos Aleatórios, f 10;
#N canvas 0 22 547 262 highlight 0;
#X obj 242 58 t b f;
#X obj 242 79 f \$0;
#X text 25 35 Ajusta as cores dos canvas por trás das interfaces gráficas
de cada envelope \, deixando destacado o que está selecionado no momento.
, f 21;
#X obj 192 104 zexy/demultiplex 0 0;
#X msg 309 137 \; \$1-randlin-canvas color 10 \; \$1-adsr-canvas color
-1.67772e+12;
#X msg 192 191 \; \$1-adsr-canvas color 10 \; \$1-randlin-canvas color
-1.67772e+12;
#X obj 242 36 r \$0-env;
#X connect 0 0 1 0;
#X connect 0 1 3 1;
#X connect 1 0 3 0;
#X connect 3 0 5 0;
#X connect 3 1 4 0;
#X connect 6 0 0 0;
#X restore 1061 261 pd highlight;
#X obj 25 237 cnv 15 350 90 empty \$0-adsr-canvas empty 20 12 0 14
-233017 -66577 0;
#X obj 510 237 cnv 15 350 90 empty \$0-randlin-canvas empty 20 12 0
14 -262144 -66577 0;
#X obj 25 237 ADSR;
#X obj 368 331 s \$0-adsr-right-out;
#X obj 25 331 s~ \$0-adsr-left-out;
#X obj 196 214 r \$0-adsr-mid-in;
#X obj 368 214 r \$0-adsr-right-in;
#X obj 25 214 r~ \$0-adsr-left-in;
#X obj 510 237 RandomLinear;
#X obj 510 331 s~ \$0-randlin-left-out;
#X obj 853 331 s \$0-randlin-right-out;
#X obj 510 214 r~ \$0-randlin-left-in;
#X obj 681 214 r \$0-randlin-mid-in;
#X obj 853 214 r \$0-randlin-right-in;
#X obj 12 15 inlet~;
#X text 23 183 Entrada:sinal, f 8;
#X text 413 183 Entrada:(f \, a), f 8;
#X text 811 183 Entrada:bang, f 8;
#X text 21 350 Saída:sinal, f 6;
#X text 823 350 Saída:(f \, a), f 6;
#X connect 0 0 5 0;
#X connect 1 0 6 0;
#X connect 2 0 3 0;
#X connect 2 1 4 0;
#X connect 5 0 15 0;
#X connect 5 1 16 0;
#X connect 6 0 7 0;
#X connect 6 1 8 0;
#X connect 11 0 10 0;
#X connect 12 0 9 0;
#X connect 13 0 11 0;
#X connect 14 0 11 1;
#X connect 17 0 2 0;
#X connect 18 0 5 1;
#X connect 19 0 6 1;
#X connect 20 0 11 0;
#X connect 21 0 12 0;
#X connect 22 0 12 1;
#X connect 23 0 12 2;
#X connect 30 0 32 0;
#X connect 30 1 31 0;
#X connect 33 0 30 1;
#X connect 34 0 30 2;
#X connect 35 0 30 0;
#X connect 36 0 37 0;
#X connect 36 1 38 0;
#X connect 39 0 36 0;
#X connect 40 0 36 1;
#X connect 41 0 36 2;
#X connect 42 0 2 0;
#X coords 0 -1 1 1 845 205 2 20 180;
