#N canvas 413 18 952 694 10;
#X floatatom 721 234 5 0 0 0 - - -, f 5;
#X obj 498 285 del;
#X msg 465 311 1;
#X msg 497 333 0;
#X obj 259 289 noise~;
#X obj 378 384 *~;
#X text 596 185 Frequency (Hz.);
#X obj 537 220 expr 1000 / $f1;
#X obj 376 26 inlet;
#X obj 378 87 unpack;
#X obj 663 109 outlet;
#X obj 599 418 r \$0-atenuacao;
#X obj 94 24 hsl 128 15 0 1 0 0 \$0-atenuacao empty Atenuação -2
-8 0 10 -262144 -1 -1 12700 1;
#X obj 620 558 r \$0-ampl;
#X obj 508 112 s \$0-ampl;
#X obj 419 580 outlet~;
#X obj 750 65 inlet;
#X obj 865 148 outlet;
#X msg 751 106 0;
#X obj 750 150 s \$0-osc-zero;
#X text 708 250 duration of one period (ms);
#X obj 427 359 vline~;
#X obj 544 249 t f f;
#X obj 569 368 fexpr~ 0.5*$x1[0]+0.5*$x1[-1];
#X obj 414 501 *~ 1;
#X floatatom 452 487 5 0 0 0 - - -, f 5;
#X obj 183 556 delwrite~ buffer 2000;
#X obj 576 322 delread~ buffer;
#X obj 376 521 +~;
#X floatatom 524 174 5 0 0 0 - - -, f 5;
#X obj 328 123 t b b;
#X obj 524 446 * -0.06;
#X obj 484 467 + 0.99;
#X text 434 66 pega a freq. e usa no algoritmo;
#X text 561 486 aplica atenuação do slider \, com algumas contas
pra que a direita seja com mais atenuação;
#X connect 1 0 3 0;
#X connect 2 0 21 0;
#X connect 3 0 21 0;
#X connect 4 0 5 0;
#X connect 5 0 28 0;
#X connect 7 0 0 0;
#X connect 7 0 22 0;
#X connect 8 0 9 0;
#X connect 8 0 10 0;
#X connect 8 0 30 0;
#X connect 9 0 29 0;
#X connect 9 1 14 0;
#X connect 11 0 31 0;
#X connect 16 0 17 0;
#X connect 16 0 18 0;
#X connect 18 0 19 0;
#X connect 21 0 5 1;
#X connect 22 0 1 1;
#X connect 22 1 27 0;
#X connect 23 0 24 0;
#X connect 24 0 28 1;
#X connect 25 0 24 1;
#X connect 27 0 23 0;
#X connect 28 0 26 0;
#X connect 28 0 15 0;
#X connect 29 0 7 0;
#X connect 30 0 2 0;
#X connect 30 1 1 0;
#X connect 31 0 32 0;
#X connect 32 0 25 0;
#X coords 0 0 1 1 300 55 1 0 0;
