#N canvas 0 50 1536 781 10;
#X obj 465 215 bng 15 250 50 0 empty empty empty 0 -6 0 8 -262144 -1
-1;
#X floatatom 537 251 5 0 0 0 - - -, f 5;
#X obj 498 285 del;
#X msg 465 311 1;
#X msg 497 333 0;
#X obj 377 315 noise~;
#X obj 378 384 *~;
#X obj 558 342 vd~ buffer 100;
#X obj 435 598 dac~;
#X obj 235 558 delwrite~ buffer 1000;
#X obj 558 385 *~ 0.5;
#X obj 646 401 *~ 0.5;
#X obj 559 438 +~;
#X floatatom 537 183 5 0 0 0 - - -, f 5;
#X text 596 185 Frequency (Hz.);
#X text 733 374 Delay by 1 Sample;
#X text 703 416 calculates average;
#X text 518 521 damping factor (between 0 and 1);
#X obj 537 220 expr 1000 / $f1;
#X obj 645 374 zexy/z~ 1;
#X obj 376 26 inlet;
#X obj 378 87 unpack;
#X obj 663 109 outlet;
#X obj 516 496 r \$0-atenuacao;
#X obj 82 63 hsl 128 15 0 1 0 0 \$0-atenuacao empty Atenuação -2
-8 0 10 -262144 -1 -1 0 1;
#X obj 437 522 *~ 0.99;
#X obj 436 553 *~ 1;
#X obj 495 552 r \$0-ampl;
#X obj 508 112 s \$0-ampl;
#X obj 413 672 outlet~;
#X obj 909 120 inlet;
#X obj 1024 203 outlet;
#X msg 910 161 0;
#X obj 909 205 s \$0-osc-zero;
#X obj 511 596 *~;
#X obj 583 553 r \$0-osc-zero;
#X obj 704 554 r \$0-nota;
#X msg 351 113 1;
#X obj 353 187 s \$0-nota;
#X text 588 251 duration of one period (ms);
#X text 193 11 Entrada: bang;
#X text 5 19 Entrada:(f \, a);
#X text 104 106 Saída: (f \, a);
#X text 211 105 Saída: bang;
#X text 4 107 Saída: sinal;
#X connect 0 0 2 0;
#X connect 0 0 3 0;
#X connect 1 0 2 1;
#X connect 1 0 7 0;
#X connect 2 0 4 0;
#X connect 3 0 6 1;
#X connect 4 0 6 1;
#X connect 5 0 6 0;
#X connect 6 0 9 0;
#X connect 7 0 10 0;
#X connect 7 0 19 0;
#X connect 10 0 12 0;
#X connect 11 0 12 1;
#X connect 12 0 25 0;
#X connect 13 0 18 0;
#X connect 18 0 1 0;
#X connect 19 0 11 0;
#X connect 20 0 21 0;
#X connect 20 0 22 0;
#X connect 20 0 37 0;
#X connect 21 0 13 0;
#X connect 21 1 28 0;
#X connect 23 0 25 1;
#X connect 25 0 9 0;
#X connect 25 0 26 0;
#X connect 26 0 8 0;
#X connect 26 0 8 1;
#X connect 26 0 29 0;
#X connect 26 0 34 0;
#X connect 27 0 26 1;
#X connect 30 0 31 0;
#X connect 30 0 32 0;
#X connect 32 0 33 0;
#X connect 34 0 29 0;
#X connect 35 0 34 1;
#X connect 36 0 34 1;
#X connect 37 0 38 0;
#X coords 0 0 1 1 300 125 1 0 0;
