#N canvas 291 29 952 694 10;
#X floatatom 721 234 5 0 0 0 - - -, f 5;
#X obj 498 285 del;
#X msg 465 311 1;
#X msg 497 333 0;
#X obj 259 289 noise~;
#X obj 378 384 *~;
#X text 596 185 Frequency (Hz.);
#X text 559 487 damping factor (between 0 and 1);
#X obj 537 220 expr 1000 / $f1;
#X obj 376 26 inlet;
#X obj 378 87 unpack;
#X obj 663 109 outlet;
#X obj 605 442 r \$0-atenuacao;
#X obj 89 28 hsl 128 15 0.93 0.99 0 0 \$0-atenuacao empty Atenuação
-2 -8 0 10 -262144 -1 -1 0 1;
#X obj 620 558 r \$0-ampl;
#X obj 508 112 s \$0-ampl;
#X obj 419 580 outlet~;
#X obj 750 65 inlet;
#X obj 865 148 outlet;
#X msg 751 106 0;
#X obj 750 150 s \$0-osc-zero;
#X text 708 250 duration of one period (ms);
#X obj 427 359 vline~;
#X obj 544 249 t f f;
#X obj 569 368 fexpr~ 0.5*$x1[0]+0.5*$x1[-1];
#X obj 426 498 *~ 1;
#X floatatom 502 488 5 0 0 0 - - -, f 5;
#X obj 183 556 delwrite~ buffer 2000;
#X obj 576 322 delread~ buffer;
#X obj 376 521 +~;
#X floatatom 524 174 5 0 0 0 - - -, f 5;
#X obj 328 123 t b b;
#X connect 1 0 3 0;
#X connect 2 0 22 0;
#X connect 3 0 22 0;
#X connect 4 0 5 0;
#X connect 5 0 29 0;
#X connect 8 0 0 0;
#X connect 8 0 23 0;
#X connect 9 0 10 0;
#X connect 9 0 11 0;
#X connect 9 0 31 0;
#X connect 10 0 30 0;
#X connect 10 1 15 0;
#X connect 12 0 26 0;
#X connect 17 0 18 0;
#X connect 17 0 19 0;
#X connect 19 0 20 0;
#X connect 22 0 5 1;
#X connect 23 0 1 1;
#X connect 23 1 28 0;
#X connect 24 0 25 0;
#X connect 25 0 29 1;
#X connect 26 0 25 1;
#X connect 28 0 24 0;
#X connect 29 0 27 0;
#X connect 29 0 16 0;
#X connect 30 0 8 0;
#X connect 31 0 2 0;
#X connect 31 1 1 0;
#X coords 0 0 1 1 300 55 1 0 0;
