#N canvas 455 22 686 584 10;
#X obj 175 30 bng 15 250 50 0 empty empty empty 17 7 0 10 -262144 -1
-1;
#X floatatom 174 421 5 0 0 0 - - -, f 5;
#X obj 174 395 mtof;
#X obj 174 447 osc~;
#X obj 175 258 unpack;
#X obj 174 333 stripnote;
#X floatatom 174 368 5 0 0 0 - - -, f 5;
#X obj 249 174 bng 15 250 50 0 empty empty empty 17 7 0 10 -262144
-1 -1;
#X obj 175 61 openpanel;
#X msg 207 118 read \$1;
#X obj 175 87 t b s;
#X obj 175 148 cyclone/seq;
#X obj 173 559 dac~;
#X msg 249 194 0;
#X text 268 173 Final do sequenciamento.;
#X text 194 30 Abre arquivo MIDI.;
#X obj 175 228 cyclone/midiparse;
#X obj 194 493 hsl 128 15 0 1 0 0 empty empty volume -2 -8 0 10 -262144
-1 -1 0 1;
#X obj 173 524 *~;
#X text 214 367 Número MIDI;
#X text 215 419 Hertz;
#X floatatom 175 280 5 0 0 0 - - -, f 5;
#X floatatom 254 263 5 0 0 0 - - -, f 5;
#X text 132 279 pitch;
#X text 295 263 velocity;
#X msg 112 109 stop;
#X obj 64 387 pack;
#X obj 63 428 print nota;
#X obj 324 342 print;
#X obj 286 310 select 0;
#X text 13 454 lembrar de mandar output em vez de print \, e de mandar
a frequencia e nao o num/velocidade midi;
#X text 372 358 lembrar de mandar output em vez de print;
#X connect 0 0 8 0;
#X connect 1 0 3 0;
#X connect 2 0 1 0;
#X connect 3 0 18 0;
#X connect 4 0 21 0;
#X connect 4 1 22 0;
#X connect 5 0 6 0;
#X connect 5 0 26 0;
#X connect 5 1 26 1;
#X connect 6 0 2 0;
#X connect 7 0 13 0;
#X connect 8 0 10 0;
#X connect 9 0 11 0;
#X connect 10 0 11 0;
#X connect 10 1 9 0;
#X connect 11 0 16 0;
#X connect 11 1 7 0;
#X connect 13 0 3 0;
#X connect 16 0 4 0;
#X connect 17 0 18 1;
#X connect 18 0 12 0;
#X connect 18 0 12 1;
#X connect 21 0 5 0;
#X connect 22 0 29 0;
#X connect 22 0 5 1;
#X connect 25 0 11 0;
#X connect 25 0 7 0;
#X connect 26 0 27 0;
#X connect 29 0 28 0;
