#N canvas 0 50 1536 781 10;
#X obj 538 140 hsl 128 15 0 10 0 0 empty empty empty -2 -8 0 10 -262144
-1 -1 900 1;
#X obj 376 247 *~ 2;
#X obj 376 267 +~ 2;
#X obj 415 289 *~ 2;
#X obj 414 312 +~ 2;
#X obj 162 221 delwrite~ phase2 100;
#X obj 414 338 vd~ phase2;
#X obj 415 245 wrap~;
#X obj 385 190 phasor~;
#X obj 414 224 +~ 0.5;
#X obj 376 224 cos~;
#X obj 415 265 cos~;
#X obj 541 237 hsl 128 15 0 3 0 0 empty empty empty -2 -8 0 10 -262144
-1 -1 9900 1;
#X obj 414 361 *~ 0.8;
#X obj 376 422 *~ 0.8;
#X obj 485 449 s~ output;
#X obj 66 379 r~ output;
#X obj 570 356 hsl 128 15 -0.9 0.9 0 0 empty empty empty -2 -8 0 10
-262144 -1 -1 4300 1;
#X text 290 155 <-- Write to delay lines;
#X text 486 335 <-- Read from delay line 2;
#X text 480 399 <-- Read from delay line 1;
#X obj 377 399 vd~ phase1;
#X obj 163 161 delwrite~ phase1 100;
#X text 448 190 <-- Low Frequency Oscillator (LFO);
#X floatatom 535 164 5 0 0 0 - - -, f 5;
#X floatatom 539 263 5 0 0 0 - - -, f 5;
#X floatatom 567 377 5 0 0 0 - - -, f 5;
#X text 678 136 <-- Speed (try 0.7);
#X text 683 235 <-- Depth (try 2.4);
#X text 710 356 <-- Feedback (try -0.3);
#X obj 132 574 outlet~;
#X obj 136 117 inlet~;
#X obj 68 35 hsl 128 15 0 10 0 0 \$0-frequencia empty Frequência -2
-8 0 10 -262144 -1 -1 900 1;
#X obj 576 103 r \$0-frequencia;
#X obj 391 57 inlet;
#X obj 69 76 hsl 128 15 0 1 0 0 \$0-wet empty Dry/Wet -2 -8 0 10 -262144
-1 -1 12700 1;
#X obj 221 371 r \$0-wet;
#X obj 89 451 *~ 1;
#X obj 149 481 *~ 0;
#X obj 131 524 +~;
#X obj 232 415 * -1;
#X obj 196 452 + 1;
#X floatatom 196 548 5 0 0 0 - - -, f 5;
#X floatatom 76 553 5 0 0 0 - - -, f 5;
#X connect 0 0 8 0;
#X connect 0 0 24 0;
#X connect 1 0 2 0;
#X connect 2 0 21 0;
#X connect 3 0 4 0;
#X connect 4 0 6 0;
#X connect 6 0 13 0;
#X connect 6 0 15 0;
#X connect 7 0 11 0;
#X connect 8 0 9 0;
#X connect 8 0 10 0;
#X connect 9 0 7 0;
#X connect 10 0 1 0;
#X connect 11 0 3 0;
#X connect 12 0 1 1;
#X connect 12 0 3 1;
#X connect 12 0 2 1;
#X connect 12 0 4 1;
#X connect 12 0 25 0;
#X connect 13 0 5 0;
#X connect 14 0 22 0;
#X connect 16 0 37 0;
#X connect 17 0 14 1;
#X connect 17 0 13 1;
#X connect 17 0 26 0;
#X connect 21 0 14 0;
#X connect 21 0 15 0;
#X connect 31 0 5 0;
#X connect 31 0 22 0;
#X connect 31 0 38 0;
#X connect 33 0 0 0;
#X connect 36 0 37 1;
#X connect 36 0 40 0;
#X connect 36 0 43 0;
#X connect 37 0 39 0;
#X connect 38 0 39 1;
#X connect 39 0 30 0;
#X connect 40 0 41 0;
#X connect 41 0 38 1;
#X connect 41 0 42 0;
#X coords 0 -1 1 1 250 100 1 10 10;
