#N canvas 9 50 1263 692 10;
#X obj 30 555 Tocador;
#X obj 906 4 ADSR;
#X obj 30 128 Sintetizadores;
#X obj 30 2 Entrada;
#X connect 2 0 0 0;
#X connect 3 0 2 0;
#X connect 3 1 2 1;
#X coords 0 692 1 691 85 60 0;
