#N canvas 9 50 1263 692 10;
#X obj 168 12 LeitorArquivo;
#X obj 426 13 EntradaMidi;
#X obj 30 551 Tocador;
#X obj 906 4 ADSR;
#X obj 30 121 Sintetizadores;
#X connect 1 0 4 0;
#X connect 1 1 4 1;
#X connect 4 0 2 0;
#X coords 0 692 1 691 85 60 0;
