#N canvas 201 50 964 702 10;
#X obj 260 1300 Tocador;
#X obj 30 138 Sintetizadores;
#X obj 30 12 Entrada;
#X obj 56 575 Envelopes;
#X obj 85 795 Efeitos;
#X text 131 578 para usar: mudar slider Sustain do ADSR para 1 porque
isso impede de sair o som se todos sliders estiverem no zero;
#X connect 1 0 3 0;
#X connect 1 1 3 1;
#X connect 1 2 3 2;
#X connect 2 0 1 0;
#X connect 2 1 1 1;
#X connect 3 0 4 0;
#X connect 3 1 4 1;
#X connect 4 0 0 0;
#X coords 0 702 1 701 85 60 0;
