#N canvas 0 22 964 702 10;
#X obj 81 863 Tocador;
#X obj 30 138 Sintetizadores;
#X obj 30 12 Entrada;
#X obj 51 586 Envelopes;
#X connect 1 0 3 0;
#X connect 1 1 3 1;
#X connect 1 2 3 2;
#X connect 2 0 1 0;
#X connect 2 1 1 1;
#X connect 3 0 0 0;
#X coords 0 702 1 701 85 60 0;
