#N canvas 0 22 880 632 10;
#X obj 47 77 hsl 128 15 0 500 0 0 \$0-release empty Release -2 -8 0
10 -262144 -1 -1 0 1;
#X obj 47 37 hsl 128 15 0 300 0 0 \$0-attack empty Attack -2 -8 0 10
-262144 -1 -1 0 1;
#X obj 194 37 hsl 128 15 500 1000 0 0 \$0-max empty Max -2 -8 0 10
-262144 -1 -1 0 1;
#X obj 195 78 hsl 128 15 0 500 0 0 \$0-min empty Min -2 -8 0 10 -262144
-1 -1 0 1;
#X obj 29 119 inlet~;
#X obj 92 525 *~;
#X obj 87 573 outlet~;
#X obj 165 494 vline~;
#X obj 380 362 inlet;
#X obj 374 407 pack f f;
#X obj 366 446 0 \$2;
#X obj 461 365 r \$0-release;
#X obj 308 161 r \$0-attack;
#X obj 146 113 inlet;
#X obj 202 166 outlet;
#X obj 104 173 unpack;
#X obj 411 160 r \$0-max;
#X obj 512 157 r \$0-min;
#X floatatom 337 218 5 0 0 0 - - -, f 5;
#X obj 460 281 random 100;
#X floatatom 410 336 5 0 0 0 - - -, f 5;
#X obj 463 314 / 100;
#X obj 423 199 -;
#X obj 397 269 + 0;
#X obj 188 379 pack f f f f f;
#X msg 174 431 \$2 \$3 \, \$5 \$4 \$3;
#X obj 387 201 bng 15 250 50 0 empty empty empty 17 7 0 10 -262144
-1 -1;
#X obj 409 228 random 2;
#X text 479 234 sorteia a duracão do decay e o volume do sustain basedo
nos parametros de entrada Max e Min;
#X obj 423 26 cnv 15 375 100 empty empty empty 20 12 0 14 -262130 -66577
0;
#X text 438 28 Esse patch recebe um sinal no inlet da esquerda \, pares
(frequência \, amplitude) no inlet do meio e bangs representando o
final de notas MIDI no inlet da direita. Usando os parâmetros de ataque
e soltura e de máximo e mínimo definidos pelo usuário \, ele cria
um envelope com trechos lineares aleatórios. Devolve o sinal envelopado
no outlet da esquerda e os pares recebidos no da direita.;
#X connect 4 0 5 0;
#X connect 5 0 6 0;
#X connect 7 0 5 1;
#X connect 8 0 9 0;
#X connect 9 0 10 0;
#X connect 10 0 7 0;
#X connect 11 0 9 1;
#X connect 12 0 24 2;
#X connect 13 0 14 0;
#X connect 13 0 15 0;
#X connect 13 0 24 0;
#X connect 15 1 24 1;
#X connect 16 0 22 0;
#X connect 17 0 22 1;
#X connect 17 0 23 1;
#X connect 19 0 21 0;
#X connect 20 0 24 4;
#X connect 21 0 20 0;
#X connect 22 0 27 1;
#X connect 23 0 18 0;
#X connect 23 0 24 3;
#X connect 24 0 25 0;
#X connect 25 0 7 0;
#X connect 26 0 27 0;
#X connect 27 0 23 0;
#X coords 0 -1 1 1 350 90 1 10 10;
