#N canvas 0 22 1250 686 10;
#X obj 22 15 inlet;
#X obj 22 41 zexy/demultiplex 0 0 0;
#X obj 22 107 s \$0-fm-left-in;
#X obj 86 85 s \$0-vco-left-in;
#X obj 151 63 s \$0-ks-left-in;
#X obj 262 15 inlet;
#X obj 262 41 zexy/demultiplex 0 0 0;
#X obj 391 63 s \$0-ks-right-in;
#X obj 326 85 s \$0-vco-right-in;
#X obj 262 107 s \$0-fm-right-in;
#X obj 151 16 r \$0-sint;
#X obj 391 15 r \$0-sint;
#X obj 539 45 r \$0-sint;
#X obj 925 77 r \$0-sint;
#X obj 808 104 zexy/multiplex 0 0 0;
#X obj 808 126 outlet;
#X obj 1115 77 r \$0-sint;
#X obj 998 104 zexy/multiplex 0 0 0;
#X obj 998 126 outlet;
#X obj 568 12 r~ \$0-fm-left-out;
#X obj 629 34 r~ \$0-vco-left-out;
#X obj 691 56 r~ \$0-ks-left-out;
#X obj 568 104 zexy/multiplex~ 0 0 0;
#X obj 568 126 outlet~;
#X obj 808 12 r \$0-fm-mid-out;
#X obj 847 34 r \$0-vco-mid-out;
#X obj 886 56 r \$0-ks-mid-out;
#X obj 998 12 r \$0-fm-right-out;
#X obj 1037 34 r \$0-vco-right-out;
#X obj 1076 56 r \$0-ks-right-out;
#X obj 450 258 hradio 30 1 0 3 empty empty empty 0 -8 0 10 -262144
-1 -1 1;
#X text 453 235 FM;
#X text 482 235 VCO;
#X text 513 229 Karplus-Strong, f 8;
#X obj 450 294 s \$0-sint;
#X obj 22 250 cnv 15 300 180 empty \$0-fm-canvas empty 20 12 0 14 -228856
-1 0;
#X obj 22 250 SintetizadorFM;
#X obj 22 227 r \$0-fm-left-in;
#X obj 315 227 r \$0-fm-right-in;
#X obj 22 438 s~ \$0-fm-left-out;
#X obj 168 437 s \$0-fm-mid-out;
#X obj 315 437 s \$0-fm-right-out;
#X obj 450 359 cnv 15 390 270 empty \$0-vco-canvas empty 20 12 0 14
-262144 -66577 0;
#X obj 450 359 SintetizadorVCO;
#X obj 450 336 r \$0-vco-left-in;
#X obj 833 336 r \$0-vco-right-in;
#X obj 450 638 s~ \$0-vco-left-out;
#X obj 641 637 s \$0-vco-mid-out;
#X obj 833 635 s \$0-vco-right-out;
#N canvas 0 22 485 389 highlight 0;
#X obj 242 36 r \$0-sint;
#X obj 192 104 zexy/demultiplex 0 0 0;
#X obj 242 58 t b f;
#X obj 242 79 f \$0;
#X msg 151 307 \; \$1-fm-canvas color 10 \; \$1-vco-canvas color -1.67772e+12
\; \$1-ks-canvas color -1.67772e+12;
#X msg 194 240 \; \$1-vco-canvas color 10 \; \$1-fm-canvas color -1.67772e+12
\; \$1-ks-canvas color -1.67772e+12;
#X msg 243 175 \; \$1-ks-canvas color 10 \; \$1-fm-canvas color -1.67772e+12
\; \$1-vco-canvas color -1.67772e+12;
#X text 25 35 Ajusta as cores dos canvas por trás das interfaces gráficas
de cada sintetizador \, deixando destacado o que está selecionado
no momento., f 21;
#X connect 0 0 2 0;
#X connect 1 0 4 0;
#X connect 1 1 5 0;
#X connect 1 2 6 0;
#X connect 2 0 3 0;
#X connect 2 1 1 1;
#X connect 3 0 1 0;
#X restore 986 250 pd highlight;
#X obj 22 498 cnv 15 300 125 empty \$0-ks-canvas empty 20 12 0 14 -262144
-66577 0;
#X obj 22 498 KarplusStrong;
#X obj 22 474 r \$0-ks-left-in;
#X obj 315 474 r \$0-ks-right-in;
#X obj 22 631 s~ \$0-ks-left-out;
#X obj 168 630 s \$0-ks-mid-out;
#X obj 315 630 s \$0-ks-right-out;
#X connect 0 0 1 0;
#X connect 1 0 2 0;
#X connect 1 1 3 0;
#X connect 1 2 4 0;
#X connect 5 0 6 0;
#X connect 6 0 9 0;
#X connect 6 1 8 0;
#X connect 6 2 7 0;
#X connect 10 0 1 1;
#X connect 11 0 6 1;
#X connect 12 0 22 0;
#X connect 13 0 14 3;
#X connect 14 0 15 0;
#X connect 16 0 17 3;
#X connect 17 0 18 0;
#X connect 19 0 22 0;
#X connect 20 0 22 1;
#X connect 21 0 22 2;
#X connect 22 0 23 0;
#X connect 24 0 14 0;
#X connect 25 0 14 1;
#X connect 26 0 14 2;
#X connect 27 0 17 0;
#X connect 28 0 17 1;
#X connect 29 0 17 2;
#X connect 30 0 34 0;
#X connect 36 0 39 0;
#X connect 36 1 40 0;
#X connect 36 2 41 0;
#X connect 37 0 36 0;
#X connect 38 0 36 1;
#X connect 43 0 46 0;
#X connect 43 1 47 0;
#X connect 43 2 48 0;
#X connect 44 0 43 0;
#X connect 45 0 43 1;
#X connect 51 0 54 0;
#X connect 51 1 55 0;
#X connect 51 2 56 0;
#X connect 52 0 51 0;
#X connect 53 0 51 1;
#X coords 0 -1 1 1 840 420 2 10 225;
