#N canvas 0 22 450 333 10;
#X obj 23 187 inlet~;
#X text 71 187 Recebe um sinal de aúdio;
#X obj 23 242 *~;
#X obj 23 288 dac~;
#X obj 38 215 r \$0-volume;
#X text 115 216 Recebe o valor do slider de volume;
#X text 0 0 Entrada:sinal, f 8;
#X obj 24 95 cnv 15 200 70 empty empty empty 20 12 0 14 -262130 -66577
0;
#X text 58 290 Reproduz o aúdio com volume ajustado;
#X obj 25 41 hsl 300 25 0 2 0 0 \$0-volume \$0-volume-set Volume -2
33 0 10 -262144 -1 -1 3737 1;
#X text 27 98 Esse patch recebe um sinal na entrada \, deixa o usuário
ajustar um slider de volume e reproduz o sinal com o volume ajustado.
O ajuste vai de 0 a 2, f 32;
#X obj 294 95 loadbang;
#X obj 294 147 s \$0-volume-set;
#X msg 294 117 0.25;
#X text 358 96 Inicializa;
#X connect 0 0 2 0;
#X connect 2 0 3 0;
#X connect 2 0 3 1;
#X connect 4 0 2 1;
#X connect 11 0 13 0;
#X connect 13 0 12 0;
#X coords 0 -1 1 1 350 85 2 0 0;
